<svg xmlns="http://www.w3.org/2000/svg" width="1128" height="191" viewBox="0 0 1128 191" role="img" aria-label="GlobalHire AI LinkedIn banner">
<rect width="1128" height="191" fill="#070A0D"/><circle cx="120" cy="40" r="260" fill="#2FBF8F" opacity="0.12"/><circle cx="1010" cy="80" r="230" fill="#6EC6D9" opacity="0.10"/>
<g transform="translate(52 48) scale(.61)">
  <rect width="128" height="128" rx="28" fill="#070A0D"/>
  <circle cx="64" cy="56" r="34" fill="none" stroke="#F4F7F5" stroke-opacity="0.92" stroke-width="7"/>
  <path d="M30 56h68M64 22c12 13 18 24 18 34s-6 21-18 34M64 22C52 35 46 46 46 56s6 21 18 34" fill="none" stroke="#F4F7F5" stroke-opacity="0.58" stroke-width="5" stroke-linecap="round"/>
  <path d="M40 71h48c6.1 0 11 4.9 11 11v15c0 6.1-4.9 11-11 11H40c-6.1 0-11-4.9-11-11V82c0-6.1 4.9-11 11-11Z" fill="#2FBF8F"/>
  <path d="M53 71v-7c0-5 4-9 9-9h4c5 0 9 4 9 9v7" fill="none" stroke="#070A0D" stroke-width="6" stroke-linecap="round"/>
  <path d="M29 88h70" stroke="#070A0D" stroke-opacity="0.35" stroke-width="5"/>
</g>
<text x="150" y="86" fill="#F4F7F5" font-family="Inter, Arial, sans-serif" font-size="38" font-weight="800">GlobalHire AI</text><text x="152" y="124" fill="#2FBF8F" font-family="Inter, Arial, sans-serif" font-size="21" font-weight="800">Get Hired Smarter.</text><text x="152" y="154" fill="#A7B0B8" font-family="Inter, Arial, sans-serif" font-size="17">AI-powered career documents for global opportunities.</text>
<circle cx="900" cy="95" r="80" fill="none" stroke="#2FBF8F" stroke-opacity=".32" stroke-width="2"/><circle cx="900" cy="95" r="54" fill="none" stroke="#2FBF8F" stroke-opacity=".24" stroke-width="2"/><circle cx="900" cy="95" r="28" fill="none" stroke="#2FBF8F" stroke-opacity=".18" stroke-width="2"/><rect x="930" y="58" width="135" height="70" rx="14" fill="white" fill-opacity=".08" stroke="#2FBF8F" stroke-opacity=".36"/><text x="950" y="91" fill="#A7B0B8" font-family="Inter, Arial, sans-serif" font-size="15" font-weight="700">ATS Fit</text><text x="950" y="120" fill="#2FBF8F" font-family="Inter, Arial, sans-serif" font-size="28" font-weight="800">91%</text></svg>